<svg width="119" height="101" viewBox="0 0 119 101" fill="none" xmlns="http://www.w3.org/2000/svg">
<g clip-path="url(#clip0)">
<path d="M96.5926 36.8005C96.1009 36.8005 95.6282 36.6361 95.2814 36.3417L84.4191 27.1698C82.704 25.7262 81.7559 23.8001 81.7559 21.7501C81.7559 19.7001 82.704 17.7739 84.4209 16.328C86.1216 14.8828 88.4009 14.083 90.8341 14.083C92.9595 14.083 94.9717 14.6932 96.5926 15.8134C98.2154 14.6917 100.229 14.083 102.353 14.083C104.786 14.083 107.065 14.8828 108.773 16.3333C110.486 17.7739 111.431 19.6985 111.431 21.7501C111.431 23.8016 110.486 25.7262 108.768 27.1714L108.113 27.715L97.9021 36.3432C97.557 36.6361 97.0862 36.8005 96.5926 36.8005ZM90.8341 17.215C89.397 17.215 88.0504 17.686 87.0453 18.5409C86.0247 19.3996 85.4651 20.5358 85.4651 21.7501C85.4651 22.9635 86.0247 24.1006 87.0398 24.9539L96.5926 33.0201L106.159 24.9463C107.162 24.1006 107.722 22.962 107.722 21.7501C107.722 20.5381 107.162 19.3996 106.149 18.5455C104.122 16.8265 100.576 16.8296 98.5378 18.5455L97.8984 19.083C97.1731 19.6924 96.0067 19.6924 95.2832 19.083L94.6457 18.5477C93.6269 17.6875 92.2731 17.215 90.8341 17.215V17.215Z" fill="white"/>
<path d="M90.8339 17.2148C89.3968 17.2148 88.0502 17.6859 87.0451 18.5407C86.0245 19.3994 85.4648 20.5357 85.4648 21.7499C85.4648 22.9634 86.0245 24.1004 87.0396 24.9538L96.5924 33.02L106.159 24.9461C107.162 24.1004 107.722 22.9619 107.722 21.7499C107.722 20.538 107.162 19.3994 106.149 18.5453C104.122 16.8264 100.576 16.8295 98.5376 18.5453L97.8982 19.0829C97.1729 19.6923 96.0065 19.6923 95.283 19.0829L94.6455 18.5476C93.6267 17.6874 92.2729 17.2148 90.8339 17.2148Z" fill="white"/>
<path d="M116.992 55.5921C115.966 55.5921 115.138 54.8924 115.138 54.0261C115.138 53.162 114.307 52.4601 113.283 52.4601C112.257 52.4601 111.429 51.7604 111.429 50.8941C111.429 50.0278 112.257 49.3281 113.283 49.3281C116.35 49.3281 118.847 51.4362 118.847 54.0261C118.847 54.8924 118.019 55.5921 116.992 55.5921Z" fill="white"/>
<path d="M113.283 66.554C112.257 66.554 111.429 65.8543 111.429 64.988C111.429 64.1217 112.257 63.422 113.283 63.422C114.307 63.422 115.138 62.7201 115.138 61.856C115.138 60.9897 115.966 60.29 116.992 60.29C118.019 60.29 118.847 60.9897 118.847 61.856C118.847 64.4459 116.35 66.554 113.283 66.554Z" fill="white"/>
<path d="M116.993 63.4228C115.967 63.4228 115.139 62.7232 115.139 61.8568V54.0269C115.139 53.1606 115.967 52.4609 116.993 52.4609C118.019 52.4609 118.848 53.1606 118.848 54.0269V61.8568C118.848 62.7232 118.019 63.4228 116.993 63.4228Z" fill="white"/>
<path d="M113.284 52.4601H109.574C108.548 52.4601 107.72 51.7604 107.72 50.8941C107.72 50.0278 108.548 49.3281 109.574 49.3281H113.284C114.31 49.3281 115.138 50.0278 115.138 50.8941C115.138 51.7604 114.31 52.4601 113.284 52.4601Z" fill="white"/>
<path d="M113.284 66.5548H102.156C101.13 66.5548 100.302 65.8552 100.302 64.9888C100.302 64.1225 101.13 63.4229 102.156 63.4229H113.284C114.31 63.4229 115.139 64.1225 115.139 64.9888C115.139 65.8552 114.31 66.5548 113.284 66.5548Z" fill="white"/>
<path d="M109.574 52.4606C108.548 52.4606 107.72 51.7609 107.72 50.8946V45.4136C107.72 44.5473 108.548 43.8477 109.574 43.8477C110.6 43.8477 111.429 44.5473 111.429 45.4136V50.8946C111.429 51.7609 110.6 52.4606 109.574 52.4606Z" fill="white"/>
<path d="M102.157 52.4608C101.986 52.4608 101.815 52.4402 101.647 52.4012C100.662 52.1634 100.091 51.2955 100.371 50.4659L102.226 44.9849C102.507 44.1514 103.544 43.6804 104.518 43.9075C105.503 44.1453 106.073 45.0132 105.793 45.8428L103.939 51.3238C103.705 52.0127 102.964 52.4608 102.157 52.4608V52.4608Z" fill="white"/>
<path d="M104.011 46.98C103.843 46.98 103.67 46.9593 103.502 46.9188C102.516 46.681 101.948 45.8131 102.229 44.9835C102.552 44.0315 103.412 41.499 106.793 41.499C109.351 41.499 111.43 43.2546 111.43 45.414C111.43 46.2803 110.601 46.98 109.575 46.98C108.549 46.98 107.721 46.2803 107.721 45.414C107.721 44.9835 107.303 44.631 106.793 44.631C106.452 44.631 106.207 44.631 105.794 45.8445C105.56 46.5334 104.82 46.98 104.011 46.98Z" fill="white"/>
<path d="M102.155 66.554C101.681 66.554 101.205 66.4003 100.844 66.0952L98.9893 64.5292C98.264 63.9168 98.264 62.9273 98.9893 62.3148C99.7147 61.7023 100.886 61.7023 101.612 62.3148L103.466 63.8808C104.192 64.4933 104.192 65.4827 103.466 66.0952C103.105 66.4003 102.63 66.554 102.155 66.554Z" fill="white"/>
<path d="M102.156 52.4601H96.5919C95.5659 52.4601 94.7373 51.7604 94.7373 50.8941C94.7373 50.0278 95.5659 49.3281 96.5919 49.3281H102.156C103.182 49.3281 104.01 50.0278 104.01 50.8941C104.01 51.7604 103.182 52.4601 102.156 52.4601Z" fill="white"/>
<path d="M100.301 64.9884H96.5919C95.5659 64.9884 94.7373 64.2888 94.7373 63.4224C94.7373 62.5561 95.5659 61.8564 96.5919 61.8564H100.301C101.327 61.8564 102.156 62.5561 102.156 63.4224C102.156 64.2888 101.327 64.9884 100.301 64.9884Z" fill="white"/>
<path d="M96.5923 66.5545H89.1739C88.1479 66.5545 87.3193 65.8549 87.3193 64.9885V49.3287C87.3193 48.4623 88.1479 47.7627 89.1739 47.7627H96.5923C97.6183 47.7627 98.4469 48.4623 98.4469 49.3287V64.9885C98.4469 65.8549 97.6183 66.5545 96.5923 66.5545ZM91.0285 63.4225H94.7377V50.8947H91.0285V63.4225Z" fill="white"/>
<path d="M98.447 96.3086C91.2903 96.3086 85.4648 91.3896 85.4648 85.3467C85.4648 79.3037 91.2903 74.3848 98.447 74.3848C105.604 74.3848 111.429 79.3037 111.429 85.3467C111.429 91.3896 105.604 96.3086 98.447 96.3086ZM98.447 77.5167C93.3342 77.5167 89.174 81.0295 89.174 85.3467C89.174 89.6638 93.3342 93.1766 98.447 93.1766C103.56 93.1766 107.72 89.6638 107.72 85.3467C107.72 81.0295 103.56 77.5167 98.447 77.5167Z" fill="white"/>
<path d="M98.4464 90.0443C97.4204 90.0443 96.5918 89.3447 96.5918 88.4784V82.2144C96.5918 81.3481 97.4204 80.6484 98.4464 80.6484C99.4724 80.6484 100.301 81.3481 100.301 82.2144V88.4784C100.301 89.3447 99.4724 90.0443 98.4464 90.0443Z" fill="white"/>
<path d="M102.156 86.9122H94.7374C93.7114 86.9122 92.8828 86.2126 92.8828 85.3463C92.8828 84.4799 93.7114 83.7803 94.7374 83.7803H102.156C103.182 83.7803 104.01 84.4799 104.01 85.3463C104.01 86.2126 103.182 86.9122 102.156 86.9122Z" fill="white"/>
<path d="M50.2278 18.0092C47.1607 18.0092 44.6641 15.9011 44.6641 13.3112C44.6641 10.7214 47.1607 8.61328 50.2278 8.61328C53.295 8.61328 55.7916 10.7214 55.7916 13.3112C55.7916 15.9011 53.295 18.0092 50.2278 18.0092ZM50.2278 11.7453C49.2046 11.7453 48.3733 12.4472 48.3733 13.3112C48.3733 14.1753 49.2046 14.8772 50.2278 14.8772C51.2511 14.8772 52.0824 14.1753 52.0824 13.3112C52.0824 12.4472 51.2511 11.7453 50.2278 11.7453Z" fill="white"/>
<path d="M66.9183 10.1791C63.8511 10.1791 61.3545 8.071 61.3545 5.48116C61.3545 2.89132 63.8511 0.783203 66.9183 0.783203C69.9854 0.783203 72.4821 2.89132 72.4821 5.48116C72.4821 8.071 69.9854 10.1791 66.9183 10.1791ZM66.9183 3.91517C65.895 3.91517 65.0637 4.61711 65.0637 5.48116C65.0637 6.3452 65.895 7.04714 66.9183 7.04714C67.9416 7.04714 68.7729 6.3452 68.7729 5.48116C68.7729 4.61711 67.9416 3.91517 66.9183 3.91517Z" fill="white"/>
<path d="M66.9183 25.8383C63.8511 25.8383 61.3545 23.7302 61.3545 21.1403C61.3545 18.5505 63.8511 16.4424 66.9183 16.4424C69.9854 16.4424 72.4821 18.5505 72.4821 21.1403C72.4821 23.7302 69.9854 25.8383 66.9183 25.8383ZM66.9183 19.5744C65.895 19.5744 65.0637 20.2763 65.0637 21.1403C65.0637 22.0044 65.895 22.7063 66.9183 22.7063C67.9416 22.7063 68.7729 22.0044 68.7729 21.1403C68.7729 20.2763 67.9416 19.5744 66.9183 19.5744Z" fill="white"/>
<path d="M63.6752 21.1857C63.3709 21.1857 63.0612 21.123 62.7777 20.9884L52.5666 16.1987C51.6701 15.7789 51.3477 14.8246 51.8449 14.0699C52.342 13.3152 53.4731 13.0399 54.3651 13.4613L64.5762 18.251C65.4727 18.6708 65.7951 19.625 65.2979 20.3797C64.9583 20.8966 64.3281 21.1857 63.6752 21.1857Z" fill="white"/>
<path d="M53.4727 13.3556C52.8198 13.3556 52.1896 13.0643 51.85 12.5497C51.351 11.795 51.6734 10.8392 52.5717 10.4209L62.7828 5.63121C63.6748 5.20836 64.8059 5.48363 65.303 6.23986C65.8002 6.99609 65.4796 7.95036 64.5813 8.36862L54.3701 13.1583C54.0867 13.2929 53.777 13.3556 53.4727 13.3556V13.3556Z" fill="white"/>
<path d="M61.7265 71.4094L63.9521 78.2997L66.1776 80.8053H58.7592L52.8245 75.1678L51.3408 41.3425L55.7918 34.4521H63.9521L61.7265 39.9331V71.4094Z" fill="white"/>
<path d="M79.9011 43.0675C78.8751 43.0675 78.0465 42.3678 78.0465 41.5015C78.0465 38.0453 74.7177 35.2345 70.6245 35.2345C66.5332 35.2345 63.2043 38.0453 63.2043 41.5015C63.2043 42.3678 62.3748 43.0675 61.3497 43.0675C60.3237 43.0675 59.4951 42.3678 59.4951 41.5015C59.4951 36.318 64.4875 32.1025 70.6245 32.1025C76.7633 32.1025 81.7557 36.318 81.7557 41.5015C81.7557 42.3678 80.9271 43.0675 79.9011 43.0675Z" fill="white"/>
<path d="M70.6276 82.2138C64.4906 82.2138 59.5 77.9999 59.5 72.8179C59.5 71.9516 60.3286 71.252 61.3546 71.252C62.3806 71.252 63.2092 71.9516 63.2092 72.8179C63.2092 76.2726 66.5362 79.0819 70.6276 79.0819C74.7189 79.0819 78.046 76.2726 78.046 72.8179C78.046 71.9516 78.8745 71.252 79.9006 71.252C80.9266 71.252 81.7551 71.9516 81.7551 72.8179C81.7551 77.9999 76.7646 82.2138 70.6276 82.2138Z" fill="white"/>
<path d="M61.3546 74.3843C60.3286 74.3843 59.5 73.6846 59.5 72.8183V41.4986C59.5 40.6323 60.3286 39.9326 61.3546 39.9326C62.3806 39.9326 63.2092 40.6323 63.2092 41.4986V72.8183C63.2092 73.6846 62.3806 74.3843 61.3546 74.3843Z" fill="white"/>
<path d="M52.0802 43.0675C51.0542 43.0675 50.2256 42.3678 50.2256 41.5015C50.2256 36.318 55.218 32.1025 61.355 32.1025C62.381 32.1025 63.2096 32.8022 63.2096 33.6685C63.2096 34.5349 62.381 35.2345 61.355 35.2345C57.2636 35.2345 53.9348 38.0453 53.9348 41.5015C53.9348 42.3678 53.1053 43.0675 52.0802 43.0675Z" fill="white"/>
<path d="M61.359 82.2138C55.222 82.2138 50.2314 77.9999 50.2314 72.8179C50.2314 71.9516 51.0609 71.252 52.086 71.252C53.112 71.252 53.9406 71.9516 53.9406 72.8179C53.9406 76.2726 57.2677 79.0819 61.359 79.0819C62.385 79.0819 63.2136 79.7815 63.2136 80.6479C63.2136 81.5142 62.385 82.2138 61.359 82.2138Z" fill="white"/>
<path d="M52.086 74.3843C51.0609 74.3843 50.2314 73.6846 50.2314 72.8183V41.4986C50.2314 40.6323 51.0609 39.9326 52.086 39.9326C53.112 39.9326 53.9406 40.6323 53.9406 41.4986V72.8183C53.9406 73.6846 53.112 74.3843 52.086 74.3843Z" fill="white"/>
<path d="M79.9005 74.3843C78.8745 74.3843 78.0459 73.6846 78.0459 72.8183V41.4986C78.0459 40.6323 78.8745 39.9326 79.9005 39.9326C80.9265 39.9326 81.7551 40.6323 81.7551 41.4986V72.8183C81.7551 73.6846 80.9265 74.3843 79.9005 74.3843Z" fill="white"/>
<path d="M68.773 82.214H61.3546C60.3286 82.214 59.5 81.5144 59.5 80.648C59.5 79.7817 60.3286 79.082 61.3546 79.082H68.773C69.799 79.082 70.6276 79.7817 70.6276 80.648C70.6276 81.5144 69.799 82.214 68.773 82.214Z" fill="white"/>
<path d="M68.773 35.2345H61.3546C60.3286 35.2345 59.5 34.5349 59.5 33.6685C59.5 32.8022 60.3286 32.1025 61.3546 32.1025H68.773C69.799 32.1025 70.6276 32.8022 70.6276 33.6685C70.6276 34.5349 69.799 35.2345 68.773 35.2345Z" fill="white"/>
<path d="M52.0801 43.0646H20.5538C19.5278 43.0646 18.6992 42.3649 18.6992 41.4986C18.6992 40.6323 19.5278 39.9326 20.5538 39.9326H52.0801C53.1052 39.9326 53.9347 40.6323 53.9347 41.4986C53.9347 42.3649 53.1052 43.0646 52.0801 43.0646Z" fill="white"/>
<path d="M52.0856 74.3859H20.5538C19.5278 74.3859 18.6992 73.6862 18.6992 72.8199C18.6992 71.9543 19.5278 71.2539 20.5538 71.2539H52.0856C53.1116 71.2539 53.9402 71.9543 53.9402 72.8199C53.9402 73.6862 53.1116 74.3859 52.0856 74.3859Z" fill="white"/>
<path d="M20.5539 74.3858C9.30586 74.3858 0.15332 66.6576 0.15332 57.1585C0.15332 47.6608 9.30586 39.9326 20.5539 39.9326C21.5799 39.9326 22.4085 40.6323 22.4085 41.4986C22.4085 42.3649 21.5799 43.0646 20.5539 43.0646C11.3497 43.0646 3.86251 49.3866 3.86251 57.1585C3.86251 64.9303 11.3497 71.2538 20.5539 71.2538C21.5799 71.2538 22.4085 71.9543 22.4085 72.8198C22.4085 73.6862 21.5799 74.3858 20.5539 74.3858Z" fill="white"/>
<path d="M24.261 99.4401C23.3391 99.4401 22.5395 98.8606 22.4227 98.0684L18.7135 73.0141C18.5876 72.1562 19.3076 71.3732 20.3236 71.2662C21.3451 71.1691 22.2669 71.7678 22.3937 72.6257L26.1029 97.6799C26.2288 98.5379 25.5089 99.3209 24.4928 99.4279C24.4149 99.4356 24.3371 99.4401 24.261 99.4401Z" fill="white"/>
<path d="M39.0979 99.4401C38.176 99.4401 37.3764 98.8606 37.2596 98.0684L33.5504 73.0141C33.4245 72.1562 34.1445 71.3732 35.1605 71.2662C36.182 71.1691 37.1039 71.7678 37.2306 72.6257L40.9398 97.6799C41.0657 98.5379 40.3458 99.3209 39.3297 99.4279C39.2519 99.4356 39.174 99.4401 39.0979 99.4401Z" fill="white"/>
<path d="M40.9542 99.4396H24.2628C23.2368 99.4396 22.4082 98.7399 22.4082 97.8736C22.4082 97.0073 23.2368 96.3076 24.2628 96.3076H40.9542C41.9802 96.3076 42.8088 97.0073 42.8088 97.8736C42.8088 98.7399 41.9802 99.4396 40.9542 99.4396Z" fill="white"/>
<path d="M44.6631 79.0823C43.8861 79.0823 43.1626 78.6671 42.9045 78.0111L41.0499 73.3146C40.7257 72.4942 41.2509 71.6064 42.2226 71.3334C43.2033 71.0582 44.2438 71.5032 44.5689 72.3237L46.4235 77.0201C46.7477 77.8405 46.2225 78.7283 45.2508 79.0013C45.0543 79.0556 44.856 79.0823 44.6631 79.0823V79.0823Z" fill="white"/>
<path d="M44.6635 79.0822H36.086C35.06 79.0822 34.2314 78.3825 34.2314 77.5162C34.2314 76.6498 35.06 75.9502 36.086 75.9502H44.6635C45.6895 75.9502 46.5181 76.6498 46.5181 77.5162C46.5181 78.3825 45.6895 79.0822 44.6635 79.0822Z" fill="white"/>
<path d="M68.7735 61.8568C67.7475 61.8568 66.9189 61.1572 66.9189 60.2909C66.9189 59.4245 67.7475 58.7249 68.7735 58.7249C69.7968 58.7249 70.6281 58.0229 70.6281 57.1589C70.6281 56.2948 69.7968 55.5929 68.7735 55.5929C67.7475 55.5929 66.9189 54.8933 66.9189 54.0269C66.9189 53.1606 67.7475 52.4609 68.7735 52.4609C71.8407 52.4609 74.3373 54.5691 74.3373 57.1589C74.3373 59.7487 71.8407 61.8568 68.7735 61.8568Z" fill="white"/>
<path d="M68.773 61.8566H61.3546C60.3286 61.8566 59.5 61.1569 59.5 60.2906C59.5 59.4243 60.3286 58.7246 61.3546 58.7246H68.773C69.799 58.7246 70.6276 59.4243 70.6276 60.2906C70.6276 61.1569 69.799 61.8566 68.773 61.8566Z" fill="white"/>
<path d="M68.773 55.5929H61.3546C60.3286 55.5929 59.5 54.8933 59.5 54.0269C59.5 53.1606 60.3286 52.4609 61.3546 52.4609H68.773C69.799 52.4609 70.6276 53.1606 70.6276 54.0269C70.6276 54.8933 69.799 55.5929 68.773 55.5929Z" fill="white"/>
<path d="M11.2809 58.7247H2.00792C0.981912 58.7247 0.15332 58.0251 0.15332 57.1588C0.15332 56.2924 0.981912 55.5928 2.00792 55.5928H11.2809C12.3069 55.5928 13.1355 56.2924 13.1355 57.1588C13.1355 58.0251 12.3069 58.7247 11.2809 58.7247Z" fill="white"/>
<path d="M11.2803 50.8947H4.49034C3.46524 50.8947 2.63574 50.195 2.63574 49.3287C2.63574 48.4623 3.46524 47.7627 4.49034 47.7627H11.2803C12.3063 47.7627 13.1349 48.4623 13.1349 49.3287C13.1349 50.195 12.3063 50.8947 11.2803 50.8947Z" fill="white"/>
<path d="M11.2803 66.5548H4.49034C3.46524 66.5548 2.63574 65.8552 2.63574 64.9888C2.63574 64.1225 3.46524 63.4229 4.49034 63.4229H11.2803C12.3063 63.4229 13.1349 64.1225 13.1349 64.9888C13.1349 65.8552 12.3063 66.5548 11.2803 66.5548Z" fill="white"/>
</g>
<defs>
<clipPath id="clip0">
<rect width="118.694" height="100.223" fill="white" transform="translate(0.15332)"/>
</clipPath>
</defs>
</svg>
