<svg width="87" height="85" viewBox="0 0 87 85" fill="none" xmlns="http://www.w3.org/2000/svg">
<g clip-path="url(#clip0_543:7548)">
<path d="M70.1669 31.0837C69.8092 31.0837 69.4652 30.9449 69.2129 30.6962L61.3097 22.9492C60.0618 21.7298 59.372 20.1029 59.372 18.3714C59.372 16.6398 60.0618 15.0129 61.3111 13.7916C62.5484 12.5709 64.2068 11.8954 65.9772 11.8954C67.5235 11.8954 68.9875 12.4108 70.1669 13.357C71.3476 12.4095 72.8129 11.8954 74.358 11.8954C76.1284 11.8954 77.7867 12.5709 79.0294 13.7961C80.2753 15.0129 80.9631 16.6385 80.9631 18.3714C80.9631 20.1042 80.2753 21.7298 79.0254 22.9505L78.549 23.4097L71.1196 30.6975C70.8686 30.9449 70.526 31.0837 70.1669 31.0837ZM65.9772 14.5408C64.9315 14.5408 63.9518 14.9387 63.2205 15.6607C62.4779 16.386 62.0707 17.3458 62.0707 18.3714C62.0707 19.3963 62.4779 20.3567 63.2165 21.0775L70.1669 27.8906L77.1272 21.071C77.8572 20.3567 78.2644 19.395 78.2644 18.3714C78.2644 17.3477 77.8572 16.386 77.12 15.6646C75.6454 14.2127 73.0653 14.2153 71.5822 15.6646L71.117 16.1186C70.5893 16.6334 69.7406 16.6334 69.2142 16.1186L68.7503 15.6665C68.0091 14.9399 67.0241 14.5408 65.9772 14.5408V14.5408Z" fill="#BE9D94"/>
<path d="M65.9772 14.5408C64.9315 14.5408 63.9518 14.9386 63.2205 15.6607C62.4779 16.386 62.0707 17.3457 62.0707 18.3713C62.0707 19.3963 62.4779 20.3567 63.2165 21.0775L70.1669 27.8906L77.1272 21.071C77.8572 20.3567 78.2644 19.395 78.2644 18.3713C78.2644 17.3477 77.8572 16.386 77.12 15.6646C75.6454 14.2127 73.0653 14.2153 71.5822 15.6646L71.117 16.1186C70.5893 16.6333 69.7406 16.6333 69.2142 16.1186L68.7504 15.6665C68.0091 14.9399 67.0241 14.5408 65.9772 14.5408Z" fill="#BE9D94"/>
<path d="M85.0099 46.9562C84.2634 46.9562 83.6605 46.3652 83.6605 45.6335C83.6605 44.9037 83.0557 44.3108 82.3112 44.3108C81.5647 44.3108 80.9618 43.7198 80.9618 42.9881C80.9618 42.2563 81.5647 41.6653 82.3112 41.6653C84.5427 41.6653 86.3592 43.446 86.3592 45.6335C86.3592 46.3652 85.7564 46.9562 85.0099 46.9562Z" fill="#BE9D94"/>
<path d="M82.3112 56.2152C81.5647 56.2152 80.9618 55.6242 80.9618 54.8924C80.9618 54.1607 81.5647 53.5697 82.3112 53.5697C83.0557 53.5697 83.6605 52.9768 83.6605 52.247C83.6605 51.5153 84.2634 50.9243 85.0099 50.9243C85.7564 50.9243 86.3592 51.5153 86.3592 52.247C86.3592 54.4345 84.5427 56.2152 82.3112 56.2152Z" fill="#BE9D94"/>
<path d="M85.0099 53.5698C84.2634 53.5698 83.6605 52.9788 83.6605 52.247V45.6335C83.6605 44.9017 84.2634 44.3108 85.0099 44.3108C85.7564 44.3108 86.3593 44.9017 86.3593 45.6335V52.247C86.3593 52.9788 85.7564 53.5698 85.0099 53.5698Z" fill="#BE9D94"/>
<path d="M82.3111 44.3108H79.6124C78.8659 44.3108 78.2631 43.7198 78.2631 42.9881C78.2631 42.2563 78.8659 41.6653 79.6124 41.6653H82.3111C83.0576 41.6653 83.6605 42.2563 83.6605 42.9881C83.6605 43.7198 83.0576 44.3108 82.3111 44.3108Z" fill="#BE9D94"/>
<path d="M82.3111 56.2152H74.215C73.4685 56.2152 72.8656 55.6242 72.8656 54.8925C72.8656 54.1607 73.4685 53.5698 74.215 53.5698H82.3111C83.0576 53.5698 83.6605 54.1607 83.6605 54.8925C83.6605 55.6242 83.0576 56.2152 82.3111 56.2152Z" fill="#BE9D94"/>
<path d="M79.6124 44.3108C78.8659 44.3108 78.2631 43.7198 78.2631 42.9881V38.3586C78.2631 37.6268 78.8659 37.0359 79.6124 37.0359C80.3589 37.0359 80.9618 37.6268 80.9618 38.3586V42.9881C80.9618 43.7198 80.3589 44.3108 79.6124 44.3108Z" fill="#BE9D94"/>
<path d="M74.2156 44.3108C74.0917 44.3108 73.9672 44.2934 73.8447 44.2605C73.1278 44.0596 72.7127 43.3265 72.9163 42.6258L74.2657 37.9963C74.4706 37.2923 75.225 36.8945 75.9333 37.0863C76.6501 37.2872 77.0652 38.0202 76.8616 38.721L75.5123 43.3504C75.3423 43.9324 74.8027 44.3108 74.2156 44.3108V44.3108Z" fill="#BE9D94"/>
<path d="M75.5651 39.6813C75.4425 39.6813 75.3167 39.6639 75.1941 39.6296C74.4773 39.4288 74.0635 38.6957 74.2684 37.995C74.503 37.1909 75.1289 35.0518 77.5891 35.0518C79.4498 35.0518 80.9625 36.5347 80.9625 38.3586C80.9625 39.0903 80.3597 39.6813 79.6132 39.6813C78.8667 39.6813 78.2638 39.0903 78.2638 38.3586C78.2638 37.995 77.9601 37.6972 77.5891 37.6972C77.3407 37.6972 77.1628 37.6972 76.8617 38.7222C76.6918 39.3041 76.1535 39.6813 75.5651 39.6813Z" fill="#BE9D94"/>
<path d="M74.2145 56.2151C73.8692 56.2151 73.5233 56.0853 73.2604 55.8276L71.9111 54.5049C71.3833 53.9876 71.3833 53.1518 71.9111 52.6345C72.4388 52.1172 73.2914 52.1172 73.8192 52.6345L75.1685 53.9572C75.6963 54.4746 75.6963 55.3103 75.1685 55.8276C74.9056 56.0853 74.5597 56.2151 74.2145 56.2151Z" fill="#BE9D94"/>
<path d="M74.215 44.3108H70.1669C69.4204 44.3108 68.8175 43.7198 68.8175 42.9881C68.8175 42.2563 69.4204 41.6653 70.1669 41.6653H74.215C74.9615 41.6653 75.5643 42.2563 75.5643 42.9881C75.5643 43.7198 74.9615 44.3108 74.215 44.3108Z" fill="#BE9D94"/>
<path d="M72.8656 54.8925H70.1669C69.4204 54.8925 68.8175 54.3015 68.8175 53.5698C68.8175 52.838 69.4204 52.2471 70.1669 52.2471H72.8656C73.6121 52.2471 74.215 52.838 74.215 53.5698C74.215 54.3015 73.6121 54.8925 72.8656 54.8925Z" fill="#BE9D94"/>
<path d="M70.1669 56.2152H64.7694C64.0229 56.2152 63.42 55.6242 63.42 54.8925V41.6654C63.42 40.9336 64.0229 40.3427 64.7694 40.3427H70.1669C70.9134 40.3427 71.5162 40.9336 71.5162 41.6654V54.8925C71.5162 55.6242 70.9134 56.2152 70.1669 56.2152ZM66.1188 53.5698H68.8175V42.9881H66.1188V53.5698Z" fill="#BE9D94"/>
<path d="M71.5163 81.3467C66.3092 81.3467 62.0707 77.1919 62.0707 72.0877C62.0707 66.9835 66.3092 62.8287 71.5163 62.8287C76.7233 62.8287 80.9618 66.9835 80.9618 72.0877C80.9618 77.1919 76.7233 81.3467 71.5163 81.3467ZM71.5163 65.4742C67.7963 65.4742 64.7695 68.4412 64.7695 72.0877C64.7695 75.7342 67.7963 78.7013 71.5163 78.7013C75.2363 78.7013 78.2631 75.7342 78.2631 72.0877C78.2631 68.4412 75.2363 65.4742 71.5163 65.4742Z" fill="#BE9D94"/>
<path d="M71.5162 76.0558C70.7697 76.0558 70.1669 75.4649 70.1669 74.7331V69.4423C70.1669 68.7105 70.7697 68.1196 71.5162 68.1196C72.2627 68.1196 72.8656 68.7105 72.8656 69.4423V74.7331C72.8656 75.4649 72.2627 76.0558 71.5162 76.0558Z" fill="#BE9D94"/>
<path d="M74.215 73.4104H68.8175C68.071 73.4104 67.4681 72.8195 67.4681 72.0877C67.4681 71.356 68.071 70.765 68.8175 70.765H74.215C74.9615 70.765 75.5643 71.356 75.5643 72.0877C75.5643 72.8195 74.9615 73.4104 74.215 73.4104Z" fill="#BE9D94"/>
<path d="M36.4328 15.2112C34.2012 15.2112 32.3847 13.4305 32.3847 11.243C32.3847 9.05552 34.2012 7.2749 36.4328 7.2749C38.6644 7.2749 40.4809 9.05552 40.4809 11.243C40.4809 13.4305 38.6644 15.2112 36.4328 15.2112ZM36.4328 9.92032C35.6883 9.92032 35.0834 10.5132 35.0834 11.243C35.0834 11.9728 35.6883 12.5657 36.4328 12.5657C37.1773 12.5657 37.7822 11.9728 37.7822 11.243C37.7822 10.5132 37.1773 9.92032 36.4328 9.92032Z" fill="#BE9D94"/>
<path d="M48.5771 8.59764C46.3455 8.59764 44.529 6.81702 44.529 4.62951C44.529 2.442 46.3455 0.661377 48.5771 0.661377C50.8087 0.661377 52.6252 2.442 52.6252 4.62951C52.6252 6.81702 50.8087 8.59764 48.5771 8.59764ZM48.5771 3.3068C47.8326 3.3068 47.2277 3.89969 47.2277 4.62951C47.2277 5.35932 47.8326 5.95222 48.5771 5.95222C49.3216 5.95222 49.9264 5.35932 49.9264 4.62951C49.9264 3.89969 49.3216 3.3068 48.5771 3.3068Z" fill="#BE9D94"/>
<path d="M48.5771 21.8247C46.3455 21.8247 44.529 20.0441 44.529 17.8566C44.529 15.669 46.3455 13.8884 48.5771 13.8884C50.8087 13.8884 52.6252 15.669 52.6252 17.8566C52.6252 20.0441 50.8087 21.8247 48.5771 21.8247ZM48.5771 16.5338C47.8326 16.5338 47.2277 17.1267 47.2277 17.8566C47.2277 18.5864 47.8326 19.1793 48.5771 19.1793C49.3216 19.1793 49.9264 18.5864 49.9264 17.8566C49.9264 17.1267 49.3216 16.5338 48.5771 16.5338Z" fill="#BE9D94"/>
<path d="M46.2174 17.8947C45.9961 17.8947 45.7707 17.8417 45.5645 17.7281L38.1351 13.6824C37.4828 13.3279 37.2483 12.5218 37.61 11.8844C37.9717 11.2469 38.7946 11.0144 39.4436 11.3703L46.873 15.4159C47.5253 15.7705 47.7599 16.5765 47.3981 17.214C47.1511 17.6506 46.6925 17.8947 46.2174 17.8947Z" fill="#BE9D94"/>
<path d="M38.7937 11.2811C38.3187 11.2811 37.8601 11.035 37.613 10.6004C37.25 9.9629 37.4846 9.15558 38.1382 8.8023L45.5676 4.75667C46.2165 4.39951 47.0395 4.63202 47.4012 5.27077C47.7629 5.90952 47.5297 6.71554 46.8761 7.06883L39.4467 11.1145C39.2405 11.2281 39.0151 11.2811 38.7937 11.2811V11.2811Z" fill="#BE9D94"/>
<path d="M44.7993 60.3156L46.4185 66.1355L48.0378 68.2518H42.6403L38.3223 63.4901L37.2429 34.9195L40.4813 29.0996H46.4185L44.7993 33.7291V60.3156Z" fill="#BE9D94"/>
<path d="M58.0229 36.3771C57.2764 36.3771 56.6735 35.7861 56.6735 35.0544C56.6735 32.1351 54.2515 29.761 51.2734 29.761C48.2966 29.761 45.8746 32.1351 45.8746 35.0544C45.8746 35.7861 45.2711 36.3771 44.5253 36.3771C43.7788 36.3771 43.1759 35.7861 43.1759 35.0544C43.1759 30.6761 46.8082 27.1155 51.2734 27.1155C55.7399 27.1155 59.3722 30.6761 59.3722 35.0544C59.3722 35.7861 58.7694 36.3771 58.0229 36.3771Z" fill="#BE9D94"/>
<path d="M51.2758 69.4423C46.8107 69.4423 43.1796 65.883 43.1796 61.506C43.1796 60.7742 43.7825 60.1833 44.529 60.1833C45.2755 60.1833 45.8784 60.7742 45.8784 61.506C45.8784 64.424 48.299 66.7968 51.2758 66.7968C54.2526 66.7968 56.6733 64.424 56.6733 61.506C56.6733 60.7742 57.2761 60.1833 58.0226 60.1833C58.7691 60.1833 59.372 60.7742 59.372 61.506C59.372 65.883 55.741 69.4423 51.2758 69.4423Z" fill="#BE9D94"/>
<path d="M44.529 62.8287C43.7825 62.8287 43.1796 62.2378 43.1796 61.506V35.0518C43.1796 34.3201 43.7825 33.7291 44.529 33.7291C45.2755 33.7291 45.8784 34.3201 45.8784 35.0518V61.506C45.8784 62.2378 45.2755 62.8287 44.529 62.8287Z" fill="#BE9D94"/>
<path d="M37.7812 36.3771C37.0347 36.3771 36.4318 35.7861 36.4318 35.0544C36.4318 30.6761 40.0642 27.1155 44.5293 27.1155C45.2758 27.1155 45.8787 27.7065 45.8787 28.4382C45.8787 29.17 45.2758 29.761 44.5293 29.761C41.5526 29.761 39.1306 32.1351 39.1306 35.0544C39.1306 35.7861 38.527 36.3771 37.7812 36.3771Z" fill="#BE9D94"/>
<path d="M44.5317 69.4423C40.0666 69.4423 36.4355 65.883 36.4355 61.506C36.4355 60.7742 37.0391 60.1833 37.7849 60.1833C38.5314 60.1833 39.1343 60.7742 39.1343 61.506C39.1343 64.424 41.555 66.7968 44.5317 66.7968C45.2782 66.7968 45.8811 67.3878 45.8811 68.1195C45.8811 68.8513 45.2782 69.4423 44.5317 69.4423Z" fill="#BE9D94"/>
<path d="M37.7849 62.8287C37.0391 62.8287 36.4355 62.2378 36.4355 61.506V35.0518C36.4355 34.3201 37.0391 33.7291 37.7849 33.7291C38.5314 33.7291 39.1343 34.3201 39.1343 35.0518V61.506C39.1343 62.2378 38.5314 62.8287 37.7849 62.8287Z" fill="#BE9D94"/>
<path d="M58.0226 62.8287C57.2761 62.8287 56.6733 62.2378 56.6733 61.506V35.0518C56.6733 34.3201 57.2761 33.7291 58.0226 33.7291C58.7691 33.7291 59.372 34.3201 59.372 35.0518V61.506C59.372 62.2378 58.7691 62.8287 58.0226 62.8287Z" fill="#BE9D94"/>
<path d="M49.9264 69.4423H44.529C43.7825 69.4423 43.1796 68.8513 43.1796 68.1196C43.1796 67.3878 43.7825 66.7969 44.529 66.7969H49.9264C50.6729 66.7969 51.2758 67.3878 51.2758 68.1196C51.2758 68.8513 50.6729 69.4423 49.9264 69.4423Z" fill="#BE9D94"/>
<path d="M49.9264 29.761H44.529C43.7825 29.761 43.1796 29.17 43.1796 28.4382C43.1796 27.7065 43.7825 27.1155 44.529 27.1155H49.9264C50.6729 27.1155 51.2758 27.7065 51.2758 28.4382C51.2758 29.17 50.6729 29.761 49.9264 29.761Z" fill="#BE9D94"/>
<path d="M37.7809 36.3745H14.843C14.0965 36.3745 13.4937 35.7836 13.4937 35.0518C13.4937 34.3201 14.0965 33.7291 14.843 33.7291H37.7809C38.5267 33.7291 39.1302 34.3201 39.1302 35.0518C39.1302 35.7836 38.5267 36.3745 37.7809 36.3745Z" fill="#BE9D94"/>
<path d="M37.7848 62.8301H14.843C14.0965 62.8301 13.4937 62.2391 13.4937 61.5073C13.4937 60.7762 14.0965 60.1846 14.843 60.1846H37.7848C38.5313 60.1846 39.1342 60.7762 39.1342 61.5073C39.1342 62.2391 38.5313 62.8301 37.7848 62.8301Z" fill="#BE9D94"/>
<path d="M14.843 62.83C6.65919 62.83 0 56.3024 0 48.2789C0 40.2568 6.65919 33.7291 14.843 33.7291C15.5895 33.7291 16.1924 34.3201 16.1924 35.0518C16.1924 35.7836 15.5895 36.3745 14.843 36.3745C8.14625 36.3745 2.69873 41.7145 2.69873 48.2789C2.69873 54.8434 8.14625 60.1846 14.843 60.1846C15.5895 60.1846 16.1924 60.7762 16.1924 61.5073C16.1924 62.2391 15.5895 62.83 14.843 62.83Z" fill="#BE9D94"/>
<path d="M17.5403 83.992C16.8696 83.992 16.2878 83.5025 16.2028 82.8334L13.5041 61.6713C13.4125 60.9466 13.9363 60.2853 14.6756 60.1949C15.4188 60.1128 16.0895 60.6186 16.1818 61.3432L18.8805 82.5053C18.9721 83.2299 18.4483 83.8913 17.709 83.9817C17.6523 83.9882 17.5957 83.992 17.5403 83.992Z" fill="#BE9D94"/>
<path d="M28.3352 83.992C27.6645 83.992 27.0827 83.5025 26.9977 82.8334L24.299 61.6713C24.2074 60.9466 24.7312 60.2853 25.4704 60.1949C26.2136 60.1128 26.8844 60.6186 26.9766 61.3432L29.6753 82.5053C29.7669 83.2299 29.2431 83.8913 28.5039 83.9817C28.4472 83.9882 28.3905 83.992 28.3352 83.992Z" fill="#BE9D94"/>
<path d="M29.686 83.9921H17.5417C16.7952 83.9921 16.1924 83.4011 16.1924 82.6694C16.1924 81.9376 16.7952 81.3467 17.5417 81.3467H29.686C30.4325 81.3467 31.0354 81.9376 31.0354 82.6694C31.0354 83.4011 30.4325 83.9921 29.686 83.9921Z" fill="#BE9D94"/>
<path d="M32.3846 66.7968C31.8193 66.7968 31.2928 66.4461 31.105 65.892L29.7557 61.9252C29.5198 61.2322 29.902 60.4823 30.6089 60.2518C31.3225 60.0192 32.0795 60.3951 32.316 61.0881L33.6654 65.055C33.9013 65.748 33.5191 66.4978 32.8122 66.7284C32.6692 66.7742 32.5249 66.7968 32.3846 66.7968V66.7968Z" fill="#BE9D94"/>
<path d="M32.3847 66.7969H26.1439C25.3974 66.7969 24.7946 66.2059 24.7946 65.4741C24.7946 64.7424 25.3974 64.1514 26.1439 64.1514H32.3847C33.1312 64.1514 33.7341 64.7424 33.7341 65.4741C33.7341 66.2059 33.1312 66.7969 32.3847 66.7969Z" fill="#BE9D94"/>
<path d="M49.9265 52.2471C49.18 52.2471 48.5771 51.6561 48.5771 50.9243C48.5771 50.1926 49.18 49.6016 49.9265 49.6016C50.671 49.6016 51.2758 49.0087 51.2758 48.2789C51.2758 47.5491 50.671 46.9562 49.9265 46.9562C49.18 46.9562 48.5771 46.3653 48.5771 45.6335C48.5771 44.9017 49.18 44.3108 49.9265 44.3108C52.158 44.3108 53.9745 46.0914 53.9745 48.2789C53.9745 50.4664 52.158 52.2471 49.9265 52.2471Z" fill="#BE9D94"/>
<path d="M49.9264 52.247H44.529C43.7825 52.247 43.1796 51.6561 43.1796 50.9243C43.1796 50.1926 43.7825 49.6016 44.529 49.6016H49.9264C50.6729 49.6016 51.2758 50.1926 51.2758 50.9243C51.2758 51.6561 50.6729 52.247 49.9264 52.247Z" fill="#BE9D94"/>
<path d="M49.9264 46.9562H44.529C43.7825 46.9562 43.1796 46.3653 43.1796 45.6335C43.1796 44.9017 43.7825 44.3108 44.529 44.3108H49.9264C50.6729 44.3108 51.2758 44.9017 51.2758 45.6335C51.2758 46.3653 50.6729 46.9562 49.9264 46.9562Z" fill="#BE9D94"/>
<path d="M8.09618 49.6016H1.34936C0.602865 49.6016 0 49.0106 0 48.2789C0 47.5471 0.602865 46.9562 1.34936 46.9562H8.09618C8.84268 46.9562 9.44554 47.5471 9.44554 48.2789C9.44554 49.0106 8.84268 49.6016 8.09618 49.6016Z" fill="#BE9D94"/>
<path d="M8.09596 42.9881H3.15576C2.40992 42.9881 1.8064 42.3971 1.8064 41.6654C1.8064 40.9336 2.40992 40.3427 3.15576 40.3427H8.09596C8.84246 40.3427 9.44532 40.9336 9.44532 41.6654C9.44532 42.3971 8.84246 42.9881 8.09596 42.9881Z" fill="#BE9D94"/>
<path d="M8.09596 56.2152H3.15576C2.40992 56.2152 1.8064 55.6242 1.8064 54.8925C1.8064 54.1607 2.40992 53.5698 3.15576 53.5698H8.09596C8.84246 53.5698 9.44532 54.1607 9.44532 54.8925C9.44532 55.6242 8.84246 56.2152 8.09596 56.2152Z" fill="#BE9D94"/>
</g>
<defs>
<clipPath id="clip0_543:7548">
<rect width="86.3593" height="84.6534" fill="white"/>
</clipPath>
</defs>
</svg>
