<svg width="87" height="78" viewBox="0 0 87 78" fill="none" xmlns="http://www.w3.org/2000/svg">
<g clip-path="url(#clip0)">
<path d="M69.4646 37.7858C68.9536 37.1716 67.9871 37.0472 67.3057 37.5078C66.9784 37.7292 66.7619 38.0586 66.7042 38.4238L65.8484 43.8309C65.8278 43.9004 65.8008 43.9681 65.7682 44.0338C67.3409 42.1514 68.6103 40.0777 69.5386 37.8748L69.4646 37.7858Z" fill="white"/>
<path d="M64.3076 45.0229C64.2349 45.0229 64.1622 45.0188 64.0901 45.0104L54.9301 43.8303C54.0869 43.7214 53.5015 43.0172 53.6224 42.2572C53.6224 42.257 53.6224 42.257 53.6224 42.2569L54.4782 36.8498C54.5975 36.0897 54.0108 35.3863 53.1674 35.2788C52.764 35.2274 52.3542 35.3219 52.0278 35.5418L47.1795 38.818C46.4981 39.2787 45.5316 39.1543 45.0205 38.5401L39.469 31.8681C38.958 31.2539 39.096 30.3827 39.7774 29.9221L44.6242 26.6459C45.3056 26.1853 45.4437 25.3142 44.9326 24.7C44.6871 24.4049 44.3216 24.2098 43.9164 24.1579L37.9176 23.385C37.0745 23.277 36.4881 22.5731 36.6082 21.8131C36.6082 21.8126 36.6084 21.8121 36.6084 21.8116L37.9176 13.5564C38.0375 12.7965 38.8184 12.2679 39.6616 12.3762C39.6621 12.3762 39.6627 12.3763 39.6633 12.3763L45.6621 13.1492C46.2791 13.2298 46.8888 12.9654 47.2042 12.4806C47.5317 11.9988 47.4948 11.3848 47.1116 10.9377L43.48 6.57038C42.969 5.95618 43.107 5.085 43.7884 4.6244L44.6628 4.03365C43.2464 3.97197 41.8267 4.0062 40.4158 4.13651C25.1845 5.70407 14.2472 18.1043 15.9863 31.8332C16.9337 39.3122 21.5666 46.0091 28.6003 50.0672C31.1683 51.5024 32.7454 54.02 32.7825 56.7433V62.3602C32.7825 64.6633 34.8537 66.5302 37.4087 66.5302H49.7455C52.3006 66.5302 54.3718 64.6633 54.3718 62.3602V56.8587C54.411 54.0714 56.0205 51.4937 58.6434 50.0172C61.0746 48.5956 63.2456 46.8417 65.0786 44.8186C64.8461 44.947 64.5801 45.0176 64.3076 45.0229ZM45.1192 62.3602H42.035V58.1903H45.1192V62.3602ZM42.035 55.4103C42.0341 51.7352 39.5199 48.4409 35.7124 47.126C24.6076 43.2121 19.1254 31.9253 23.4676 21.9158C25.1489 18.04 28.1644 14.7522 32.0715 12.5348L33.7077 14.8867C25.0575 19.7928 22.4577 30.0905 27.9008 37.8875C30.0096 40.9082 33.1379 43.2398 36.8258 44.5392C41.8238 46.2623 45.1231 50.5871 45.1192 55.4103H42.035Z" fill="white"/>
<path d="M37.4215 73.4813V74.8712C37.4215 76.4067 38.8023 77.6512 40.5057 77.6512H46.6741C48.3775 77.6512 49.7583 76.4067 49.7583 74.8712V73.4813H37.4215Z" fill="white"/>
<path d="M27.7762 51.2418C26.8626 50.7078 25.9826 50.1282 25.1408 49.5057C22.8128 53.5905 17.252 55.2008 12.7202 53.1026C9.6356 51.6744 7.70027 48.8075 7.71048 45.6818C7.71762 41.4794 11.1898 37.937 15.8157 37.4128C15.2498 35.8786 14.8409 34.3008 14.5944 32.6993L14.3245 33.8558C13.9741 35.3582 12.3385 36.3201 10.6717 36.0042C10.2725 35.9286 9.8939 35.7823 9.55791 35.5738L6.35035 33.5889L3.54065 36.1159L5.74894 39.0099C6.71545 40.2741 6.36192 42.0053 4.95938 42.8765C4.62301 43.0853 4.24404 43.232 3.84445 43.3077L0 44.0375V47.3401L3.84445 48.0698C5.51126 48.3862 6.57801 49.8606 6.22699 51.363C6.14275 51.7237 5.97967 52.0657 5.74739 52.369L3.54065 55.2477L6.35035 57.7747L9.55483 55.7842C10.9574 54.9131 12.878 55.2317 13.8446 56.4959C14.0763 56.7991 14.2389 57.1407 14.323 57.5009L15.1311 60.9717H18.7966L19.6047 57.5064C19.9555 56.004 21.5911 55.0423 23.2579 55.3585C23.6575 55.4343 24.0365 55.5809 24.3728 55.7898L27.5758 57.7747L30.8836 54.7932C30.329 53.324 29.2322 52.0704 27.7762 51.2418Z" fill="white"/>
<path d="M49.7583 67.9203H37.4215V70.7003H49.7583V67.9203Z" fill="white"/>
<path d="M82.0952 20.6496C79.566 20.3237 77.8088 18.2111 78.1704 15.9313C78.3441 14.8365 78.9931 13.8488 79.9748 13.1854L83.588 10.7418L79.8869 6.29385L76.2738 8.73606C74.2301 10.1184 71.3302 9.74553 69.7968 7.90363C69.0614 7.02029 68.7447 5.90987 68.9164 4.8163L69.5549 0.785342L63.4497 0L62.8113 4.03096C62.4495 6.31071 60.1059 7.89459 57.5766 7.56864C56.362 7.4121 55.2662 6.82709 54.5302 5.94219L51.8192 2.67989L46.8845 6.01586L49.594 9.27259C51.1272 11.1148 50.7133 13.7285 48.6695 15.1107C47.6873 15.7748 46.4529 16.0597 45.2375 15.9028L40.7654 15.3274L39.8895 20.8317L44.3616 21.4072C46.8908 21.7333 48.6481 23.8457 48.2864 26.1255C48.1128 27.2203 47.4637 28.208 46.482 28.8714L42.8704 31.315L46.5714 35.7629L50.1846 33.3207C52.2284 31.9387 55.1282 32.3118 56.6616 34.154C57.3983 35.0393 57.7144 36.1521 57.5404 37.2474L56.902 41.2784L63.021 42.0679L63.6594 38.0369C64.0212 35.7572 66.3648 34.1733 68.8941 34.4993C70.1087 34.6558 71.2045 35.2408 71.9405 36.1257L74.6515 39.3811L79.5862 36.0451L76.8675 32.7828C75.3348 30.9402 75.7495 28.3265 77.7937 26.945C78.7737 26.2827 80.0051 25.9978 81.2178 26.1526L85.6898 26.728L86.5611 21.2251L82.0952 20.6496ZM63.2307 29.369C58.1206 29.369 53.9781 25.6351 53.9781 21.0291C53.9781 16.423 58.1206 12.6892 63.2307 12.6892C68.3408 12.6892 72.4833 16.423 72.4833 21.0291C72.4773 25.6329 68.3383 29.3636 63.2307 29.369Z" fill="white"/>
</g>
<defs>
<clipPath id="clip0">
<rect width="86.565" height="77.652" fill="white"/>
</clipPath>
</defs>
</svg>
