<svg width="87" height="85" viewBox="0 0 87 85" fill="none" xmlns="http://www.w3.org/2000/svg">
<g clip-path="url(#clip0_543:7546)">
<path d="M65.9498 64.6473V44.5574L45.455 64.6473H65.9498Z" fill="#BE9D94"/>
<path d="M78.7673 20.0062H86.3575V2.48098C86.3575 1.47797 85.7428 0.572485 84.796 0.189493C83.8498 -0.19802 82.7627 0.020279 82.0386 0.72749L0.740893 80.4195C0.016797 81.1293 -0.200629 82.1949 0.192056 83.1224C0.582765 84.0498 1.5065 84.6531 2.52972 84.6531H20.4081V77.2128C20.4081 75.8423 21.54 74.7327 22.9382 74.7327C24.3369 74.7327 25.4682 75.8423 25.4682 77.2128V84.6531H30.5283V77.2128C30.5283 75.8423 31.6602 74.7327 33.0584 74.7327C34.4571 74.7327 35.5884 75.8423 35.5884 77.2128V84.6531H40.6485V77.2128C40.6485 75.8423 41.7798 74.7327 43.1786 74.7327C44.5767 74.7327 45.7086 75.8423 45.7086 77.2128V84.6531H50.7687V77.2128C50.7687 75.8423 51.9 74.7327 53.2988 74.7327C54.6969 74.7327 55.8288 75.8423 55.8288 77.2128V84.6531H60.8883V77.2128C60.8883 75.8423 62.0202 74.7327 63.4183 74.7327C64.8171 74.7327 65.9484 75.8423 65.9484 77.2128V84.6531H83.8274C85.2256 84.6531 86.3575 83.5441 86.3575 82.173V64.6471H78.7673C77.3692 64.6471 76.2373 63.5381 76.2373 62.1676C76.2373 60.7965 77.3692 59.6875 78.7673 59.6875H86.3575V54.7274H78.7673C77.3692 54.7274 76.2373 53.6178 76.2373 52.2473C76.2373 50.8762 77.3692 49.7672 78.7673 49.7672H86.3575V44.8071H78.7673C77.3692 44.8071 76.2373 43.6975 76.2373 42.327C76.2373 40.9558 77.3692 39.8469 78.7673 39.8469H86.3575V34.8867H78.7673C77.3692 34.8867 76.2373 33.7778 76.2373 32.4067C76.2373 31.0361 77.3692 29.9266 78.7673 29.9266H86.3575V24.9664H78.7673C77.3692 24.9664 76.2373 23.8575 76.2373 22.4863C76.2373 21.1158 77.3692 20.0062 78.7673 20.0062V20.0062ZM71.0092 67.1271C71.0092 68.4983 69.8772 69.6072 68.4791 69.6072H39.3466C38.3234 69.6072 37.3996 69.004 37.0096 68.0766C36.6163 67.1491 36.8337 66.0834 37.5578 65.3737L66.6903 36.8165C67.4164 36.1074 68.4989 35.8943 69.4476 36.2792C70.3938 36.6615 71.0092 37.5677 71.0092 38.57V67.1271Z" fill="#BE9D94"/>
<path d="M11.7694 37.7937L33.4916 16.4999L44.2246 27.0208L22.5024 48.314L11.7694 37.7937Z" fill="#BE9D94"/>
<path d="M37.0699 12.9927L41.0825 9.06006L51.8148 19.5804L47.8022 23.5136L37.0699 12.9927Z" fill="#BE9D94"/>
<path d="M2.70039 59.6875C3.07067 59.6875 3.44162 59.6081 3.79016 59.4453L17.4874 53.032C17.747 52.9112 17.9841 52.7465 18.1871 52.5476L18.9283 51.821L8.19535 41.3L7.45412 42.0273C7.25119 42.2256 7.08384 42.4581 6.95997 42.7125L0.417413 56.1398C-0.0444535 57.0867 0.153207 58.2176 0.911564 58.9609C1.39583 59.4382 2.04284 59.6875 2.70039 59.6875V59.6875Z" fill="#BE9D94"/>
<path d="M57.6167 13.8936C60.5764 10.9925 60.5764 6.27449 57.6167 3.37266C54.6564 0.471483 49.8434 0.471483 46.8838 3.37266L44.6601 5.55242L55.3931 16.0734L57.6167 13.8936Z" fill="#BE9D94"/>
</g>
<defs>
<clipPath id="clip0_543:7546">
<rect width="86.3591" height="84.6534" fill="white"/>
</clipPath>
</defs>
</svg>
