<svg width="78" height="78" viewBox="0 0 78 78" fill="none" xmlns="http://www.w3.org/2000/svg">
<g clip-path="url(#clip0)">
<path d="M8.23568 56.7575C7.64645 57.3497 6.94575 57.8298 6.19727 58.1499V62.2312V68.9854C6.19727 70.6019 7.50313 71.8983 9.09564 71.8983H15.6249C17.2334 71.8983 18.5233 70.5859 18.5233 68.9854V62.2312V53.6205V46.8663C18.5233 46.7222 18.5074 46.5782 18.4915 46.4501L8.23568 56.7575Z" fill="white"/>
<path d="M75.8553 14.5199C75.7916 14.5199 75.7279 14.5199 75.6483 14.5199C71.253 14.728 66.8417 14.936 62.4464 15.1441C61.7616 15.1761 61.0927 15.2081 60.7105 16.0404C60.3283 16.8566 60.7583 17.3208 61.2361 17.801C62.5897 19.1614 63.9274 20.5378 65.297 21.8663L63.8 23.3707L51.6173 35.6147L50.5344 36.703L47.8749 39.3759L37.3962 49.9073L36.791 49.2991L24.2579 36.703L21.5984 34.0302L20.8818 33.3099C20.3085 32.7338 19.5759 32.4617 18.8275 32.4617C18.079 32.4617 17.3464 32.7498 16.7731 33.3099L16.0565 34.0302L0.848012 49.3151C-0.282671 50.4515 -0.282671 52.3081 0.848012 53.4444L1.56464 54.1647C2.13795 54.7408 2.8705 55.0129 3.61898 55.0129C4.36746 55.0129 5.10002 54.7248 5.67332 54.1647L18.8275 40.9444L19.4326 41.5526L31.9657 54.1487L34.6252 56.8215L35.3418 57.5417C35.9151 58.1179 36.6477 58.39 37.3962 58.39C38.1446 58.39 38.8772 58.1019 39.4505 57.5417L40.1671 56.8215L52.7002 44.2255L55.3597 41.5526L56.4426 40.4643L68.6253 28.2203L70.1063 26.7318L74.0876 30.7011C74.4539 31.0692 74.8202 31.4694 75.3457 31.4694C75.5368 31.4694 75.7598 31.4053 75.9986 31.2773C76.7949 30.8452 76.9701 30.1409 77.0019 29.3567C77.193 25.0353 77.4 20.7299 77.6071 16.4085C77.6549 15.1121 77.1134 14.5199 75.8553 14.5199Z" fill="white"/>
<path d="M30.2629 33.1662C31.521 33.7744 32.8587 34.0945 34.2123 34.3026C35.2793 34.4787 35.3112 34.5267 35.3271 35.631C35.3271 36.1432 35.343 36.6394 35.343 37.1515C35.343 37.7917 35.6615 38.1598 36.2985 38.1758C37.047 38.1919 37.7796 38.1919 38.528 38.1758C39.1332 38.1598 39.4517 37.8237 39.4517 37.2155C39.4517 36.5273 39.4836 35.8391 39.4517 35.1349C39.4199 34.4306 39.7224 34.0785 40.3913 33.8865C41.936 33.4543 43.2578 32.6221 44.277 31.3897C47.0958 27.9486 46.0129 22.9069 42.0157 20.6822C40.7576 19.978 39.4358 19.4498 38.114 18.9056C37.3496 18.5855 36.617 18.2174 35.98 17.6892C34.706 16.6649 34.9449 15.0164 36.4419 14.3602C36.8559 14.1841 37.3018 14.1201 37.7636 14.0881C39.4836 13.9921 41.1238 14.3122 42.7004 15.0644C43.4808 15.4485 43.7356 15.3205 44.0063 14.5042C44.277 13.6399 44.5159 12.7757 44.7707 11.8954C44.9459 11.3192 44.7389 10.9191 44.1815 10.679C43.1782 10.2308 42.1431 9.91074 41.0761 9.75069C39.6587 9.52662 39.6587 9.52662 39.6587 8.10216C39.6428 6.08551 39.6428 6.08551 37.6522 6.08551C37.3655 6.08551 37.0629 6.08551 36.7763 6.08551C35.8367 6.11752 35.6774 6.27757 35.6615 7.22188C35.6456 7.65402 35.6615 8.07015 35.6615 8.50229C35.6615 9.7667 35.6456 9.75069 34.4512 10.1828C31.5528 11.2392 29.7533 13.2238 29.5622 16.4088C29.387 19.2257 30.8521 21.1304 33.1454 22.5068C34.5627 23.3551 36.1393 23.8672 37.6362 24.5234C38.2255 24.7795 38.7829 25.0836 39.2765 25.4838C40.7257 26.6841 40.455 28.6848 38.7351 29.437C37.8114 29.8372 36.8559 29.9332 35.8526 29.8212C34.3238 29.6291 32.8428 29.229 31.4573 28.4927C30.6451 28.0606 30.4062 28.1726 30.1355 29.0689C29.8966 29.8372 29.6896 30.6054 29.4826 31.3737C29.18 32.43 29.2755 32.6861 30.2629 33.1662Z" fill="white"/>
<path d="M32.015 59.4463L29.3555 56.7734L23.6225 51.0115C23.3677 51.4437 23.2244 51.9558 23.2244 52.484V53.6364V67.849V69.0013C23.2244 70.6179 24.5302 71.9143 26.1227 71.9143H32.652C34.2605 71.9143 35.5504 70.6019 35.5504 69.0013V67.849V61.847C34.4994 61.5429 33.5279 60.9667 32.7317 60.1665L32.015 59.4463Z" fill="white"/>
<path d="M42.7636 59.4465L42.047 60.1667C41.5214 60.6949 40.9163 61.127 40.2474 61.4471V67.8492V69.0016C40.2474 70.6181 41.5533 71.9145 43.1458 71.9145H49.6751C51.2836 71.9145 52.5735 70.6021 52.5735 69.0016V67.8492V53.6366V52.4843C52.5735 51.684 52.255 50.9638 51.7295 50.4356L42.7636 59.4465Z" fill="white"/>
<path d="M59.0376 43.0732L57.9547 44.1615L57.254 44.8658V46.8664V48.2428V53.6206V54.997V62.2154V68.9695C57.254 70.5861 58.5599 71.8825 60.1524 71.8825H66.6817C68.2901 71.8825 69.5801 70.57 69.5801 68.9695V62.2154V55.013V53.6366V48.2589V46.8824V39.6481V32.8939C69.5801 32.7658 69.5641 32.6378 69.5482 32.5098L59.0376 43.0732Z" fill="white"/>
</g>
<defs>
<clipPath id="clip0">
<rect width="77.61" height="78" fill="white"/>
</clipPath>
</defs>
</svg>
