<svg width="1440" height="904" viewBox="0 0 1440 904" fill="none" xmlns="http://www.w3.org/2000/svg">
<path d="M0 0H1440V904H190C85.0659 904 0 818.934 0 714V0Z" fill="url(#paint0_linear_428:6945)"/>
<mask id="mask0_428:6945" style="mask-type:alpha" maskUnits="userSpaceOnUse" x="0" y="0" width="1440" height="900">
<path d="M0 0H1440V900H190C85.0659 900 0 814.934 0 710V0Z" fill="#FF6663"/>
</mask>
<g mask="url(#mask0_428:6945)">
<path d="M286.543 213.306C319.744 231.791 350.903 243.703 380.019 249.041C409.572 254.622 436.253 254.598 460.061 248.969C484.55 243.147 506.358 232.398 525.486 216.724C544.614 201.049 560.912 181.223 574.38 157.247C601.316 109.295 606.063 63.581 588.621 20.1054C571.615 -23.1269 530.567 -62.8635 465.476 -99.1045L352.768 -161.857L176.457 152.013L286.543 213.306ZM461.571 961.43L302.339 872.773C272.196 855.99 256.965 832.059 256.646 800.978L227.508 387.313C226.448 371.844 222.678 359.158 216.198 349.255C210.155 339.595 198.396 329.9 180.922 320.171L105.565 278.214L-101.968 647.665L-278.238 549.523L252.9 -396.01L541.878 -235.115C606.095 -199.36 657.343 -161.957 695.621 -122.904C734.581 -84.0438 761.962 -44.4775 777.762 -4.20501C794 36.3106 799.681 77.2434 794.805 118.593C790.173 159.507 776.593 200.017 754.065 240.123C736.189 271.946 714.487 299.349 688.959 322.334C663.868 345.562 635.878 363.741 604.988 376.873C574.536 390.249 541.306 398.358 505.3 401.201C469.731 404.288 432.53 401.602 393.697 393.143C401.382 406.006 407.458 419.69 411.927 434.196C416.64 448.265 419.5 463.592 420.507 480.176L461.571 961.43ZM1128.68 682.185C1161.88 700.67 1193.04 712.582 1222.15 717.92C1251.71 723.502 1278.39 723.477 1302.2 717.848C1326.69 712.026 1348.49 701.277 1367.62 685.603C1386.75 669.928 1403.05 650.103 1416.52 626.126C1443.45 578.174 1448.2 532.46 1430.76 488.985C1413.75 445.752 1372.7 406.016 1307.61 369.775L1194.9 307.022L1018.59 620.892L1128.68 682.185ZM1303.71 1430.31L1144.47 1341.65C1114.33 1324.87 1099.1 1300.94 1098.78 1269.86L1069.64 856.192C1068.58 840.723 1064.81 828.037 1058.33 818.134C1052.29 808.474 1040.53 798.779 1023.06 789.05L947.7 747.093L740.167 1116.54L563.897 1018.4L1095.04 72.8689L1384.01 233.764C1448.23 269.519 1499.48 306.922 1537.76 345.975C1576.72 384.835 1604.1 424.402 1619.9 464.674C1636.14 505.19 1641.82 546.123 1636.94 587.473C1632.31 628.386 1618.73 668.896 1596.2 709.002C1578.32 740.825 1556.62 768.229 1531.09 791.213C1506 814.441 1478.01 832.62 1447.12 845.752C1416.67 859.128 1383.44 867.237 1347.44 870.08C1311.87 873.167 1274.67 870.481 1235.83 862.022C1243.52 874.885 1249.59 888.569 1254.06 903.075C1258.78 917.145 1261.64 932.471 1262.64 949.056L1303.71 1430.31Z" fill="#BE9D94"/>
</g>
<defs>
<linearGradient id="paint0_linear_428:6945" x1="1440" y1="452" x2="16.9999" y2="452" gradientUnits="userSpaceOnUse">
<stop stop-color="#CAA297"/>
<stop offset="1" stop-color="#C4A097"/>
</linearGradient>
</defs>
</svg>
