<svg width="86" height="85" viewBox="0 0 86 85" fill="none" xmlns="http://www.w3.org/2000/svg">
<g clip-path="url(#clip0)">
<path d="M43 84.2557C19.2895 84.2557 0 65.3575 0 42.1279C0 18.8983 19.2895 0 43 0C66.7105 0 86 18.8983 86 42.1279C86 49.411 84.0716 56.5894 80.4249 62.889C80.2595 63.1744 80.0916 63.4579 79.921 63.7369C79.5404 64.3611 78.717 64.5636 78.0786 64.192C77.4402 63.8198 77.2335 63.0125 77.6134 62.3876C77.7735 62.1241 77.9309 61.8592 78.0864 61.5925C81.5049 55.6862 83.3125 48.9578 83.3125 42.1279C83.3125 20.3504 65.2283 2.63299 43 2.63299C20.7717 2.63299 2.6875 20.3504 2.6875 42.1279C2.6875 63.9053 20.7717 81.6227 43 81.6227C49.0508 81.6227 54.8707 80.3403 60.2955 77.8115C60.9674 77.501 61.7679 77.78 62.0868 78.4356C62.405 79.0926 62.1202 79.8781 61.4497 80.1905C55.6606 82.8878 49.4543 84.2557 43 84.2557Z" fill="white"/>
<path d="M28.2186 53.9763H2.74377C2.00038 53.9763 1.40002 53.3881 1.40002 52.6598C1.40002 51.9315 2.00038 51.3433 2.74377 51.3433H28.2186C28.962 51.3433 29.5623 51.9315 29.5623 52.6598C29.5623 53.3881 28.962 53.9763 28.2186 53.9763Z" fill="white"/>
<path d="M28.2188 61.8753C27.4754 61.8753 26.875 61.2871 26.875 60.5588C26.875 59.8305 27.4754 59.2423 28.2188 59.2423C29.7009 59.2423 30.9062 58.0614 30.9062 56.6093C30.9062 55.1572 29.7009 53.9763 28.2188 53.9763C27.4754 53.9763 26.875 53.3881 26.875 52.6598C26.875 51.9315 27.4754 51.3433 28.2188 51.3433C31.1831 51.3433 33.5938 53.705 33.5938 56.6093C33.5938 59.5136 31.1831 61.8753 28.2188 61.8753Z" fill="white"/>
<path d="M38.9688 69.7743C38.2254 69.7743 37.625 69.1861 37.625 68.4578C37.625 67.7295 38.2254 67.1413 38.9688 67.1413C40.4509 67.1413 41.6562 65.9604 41.6562 64.5083C41.6562 63.0562 40.4509 61.8753 38.9688 61.8753C38.2254 61.8753 37.625 61.2871 37.625 60.5588C37.625 59.8305 38.2254 59.2423 38.9688 59.2423C41.9331 59.2423 44.3438 61.604 44.3438 64.5083C44.3438 67.4126 41.9331 69.7743 38.9688 69.7743Z" fill="white"/>
<path d="M36.2812 77.6733C35.5379 77.6733 34.9375 77.0851 34.9375 76.3568C34.9375 75.6285 35.5379 75.0403 36.2812 75.0403C37.7634 75.0403 38.9688 73.8594 38.9688 72.4073C38.9688 70.9551 37.7634 69.7743 36.2812 69.7743C35.5379 69.7743 34.9375 69.1861 34.9375 68.4578C34.9375 67.7295 35.5379 67.1413 36.2812 67.1413C39.2456 67.1413 41.6562 69.503 41.6562 72.4073C41.6562 75.3115 39.2456 77.6733 36.2812 77.6733Z" fill="white"/>
<path d="M38.9688 61.8753H28.2188C27.4754 61.8753 26.875 61.2871 26.875 60.5588C26.875 59.8305 27.4754 59.2423 28.2188 59.2423H38.9688C39.7121 59.2423 40.3125 59.8305 40.3125 60.5588C40.3125 61.2871 39.7121 61.8753 38.9688 61.8753Z" fill="white"/>
<path d="M38.9688 69.7743H36.2812C35.5379 69.7743 34.9375 69.1861 34.9375 68.4578C34.9375 67.7295 35.5379 67.1413 36.2812 67.1413H38.9688C39.7121 67.1413 40.3125 67.7295 40.3125 68.4578C40.3125 69.1861 39.7121 69.7743 38.9688 69.7743Z" fill="white"/>
<path d="M36.2792 77.6733H20.3084C19.5657 77.6733 18.9647 77.0851 18.9647 76.3568C18.9647 75.6285 19.5657 75.0403 20.3084 75.0403H36.2792C37.022 75.0403 37.623 75.6285 37.623 76.3568C37.623 77.0851 37.022 77.6733 36.2792 77.6733Z" fill="white"/>
<path d="M25.5312 25.0134C24.7879 25.0134 24.1875 24.4252 24.1875 23.6969C24.1875 22.9686 24.7879 22.3804 25.5312 22.3804C27.0134 22.3804 28.2188 21.1996 28.2188 19.7474C28.2188 18.2953 27.0134 17.1144 25.5312 17.1144C24.7879 17.1144 24.1875 16.5263 24.1875 15.7979C24.1875 15.0696 24.7879 14.4814 25.5312 14.4814C28.4956 14.4814 30.9062 16.8432 30.9062 19.7474C30.9062 22.6517 28.4956 25.0134 25.5312 25.0134Z" fill="white"/>
<path d="M21.5 32.9124C20.7566 32.9124 20.1562 32.3242 20.1562 31.5959C20.1562 30.8676 20.7566 30.2794 21.5 30.2794C22.9822 30.2794 24.1875 29.0985 24.1875 27.6464C24.1875 26.1943 22.9822 25.0134 21.5 25.0134C20.7566 25.0134 20.1562 24.4252 20.1562 23.6969C20.1562 22.9686 20.7566 22.3804 21.5 22.3804C24.4644 22.3804 26.875 24.7422 26.875 27.6464C26.875 30.5507 24.4644 32.9124 21.5 32.9124Z" fill="white"/>
<path d="M25.5316 17.1144H11.171C10.4276 17.1144 9.82721 16.5263 9.82721 15.7979C9.82721 15.0696 10.4276 14.4814 11.171 14.4814H25.5316C26.275 14.4814 26.8754 15.0696 26.8754 15.7979C26.8754 16.5263 26.275 17.1144 25.5316 17.1144Z" fill="white"/>
<path d="M25.5312 25.0134H21.5C20.7566 25.0134 20.1562 24.4252 20.1562 23.6969C20.1562 22.9686 20.7566 22.3804 21.5 22.3804H25.5312C26.2746 22.3804 26.875 22.9686 26.875 23.6969C26.875 24.4252 26.2746 25.0134 25.5312 25.0134Z" fill="white"/>
<path d="M21.4985 32.9124H2.74377C2.00038 32.9124 1.40002 32.3242 1.40002 31.5959C1.40002 30.8676 2.00038 30.2794 2.74377 30.2794H21.4985C22.2413 30.2794 22.8423 30.8676 22.8423 31.5959C22.8423 32.3242 22.2413 32.9124 21.4985 32.9124Z" fill="white"/>
<path d="M83.5894 52.6598H60.4688C59.7254 52.6598 59.125 52.0717 59.125 51.3434C59.125 50.615 59.7254 50.0269 60.4688 50.0269H83.5894C84.3321 50.0269 84.9331 50.615 84.9331 51.3434C84.9331 52.0717 84.3321 52.6598 83.5894 52.6598Z" fill="white"/>
<path d="M67.1875 44.7608C64.2231 44.7608 61.8125 42.3991 61.8125 39.4949C61.8125 36.5906 64.2231 34.2289 67.1875 34.2289C67.9309 34.2289 68.5312 34.8171 68.5312 35.5454C68.5312 36.2737 67.9309 36.8619 67.1875 36.8619C65.7053 36.8619 64.5 38.0427 64.5 39.4949C64.5 40.947 65.7053 42.1279 67.1875 42.1279C67.9309 42.1279 68.5312 42.716 68.5312 43.4444C68.5312 44.1727 67.9309 44.7608 67.1875 44.7608Z" fill="white"/>
<path d="M60.4688 52.6598C57.5044 52.6598 55.0938 50.2981 55.0938 47.3939C55.0938 44.4896 57.5044 42.1279 60.4688 42.1279C61.2121 42.1279 61.8125 42.716 61.8125 43.4444C61.8125 44.1727 61.2121 44.7609 60.4688 44.7609C58.9866 44.7609 57.7812 45.9417 57.7812 47.3939C57.7812 48.846 58.9866 50.0268 60.4688 50.0268C61.2121 50.0268 61.8125 50.615 61.8125 51.3433C61.8125 52.0717 61.2121 52.6598 60.4688 52.6598Z" fill="white"/>
<path d="M48.375 36.8619C45.4106 36.8619 43 34.5001 43 31.5959C43 28.6916 45.4106 26.3299 48.375 26.3299C49.1184 26.3299 49.7188 26.9181 49.7188 27.6464C49.7188 28.3747 49.1184 28.9629 48.375 28.9629C46.8928 28.9629 45.6875 30.1437 45.6875 31.5959C45.6875 33.048 46.8928 34.2289 48.375 34.2289C49.1184 34.2289 49.7188 34.8171 49.7188 35.5454C49.7188 36.2737 49.1184 36.8619 48.375 36.8619Z" fill="white"/>
<path d="M53.75 28.9629C50.7856 28.9629 48.375 26.6012 48.375 23.697C48.375 20.7927 50.7856 18.431 53.75 18.431C54.4934 18.431 55.0938 19.0191 55.0938 19.7475C55.0938 20.4758 54.4934 21.064 53.75 21.064C52.2678 21.064 51.0625 22.2448 51.0625 23.697C51.0625 25.1491 52.2678 26.3299 53.75 26.3299C54.4934 26.3299 55.0938 26.9181 55.0938 27.6464C55.0938 28.3748 54.4934 28.9629 53.75 28.9629Z" fill="white"/>
<path d="M43 21.0639C40.0356 21.0639 37.625 18.7022 37.625 15.798C37.625 12.8937 40.0356 10.532 43 10.532C43.7434 10.532 44.3438 11.1202 44.3438 11.8485C44.3438 12.5768 43.7434 13.165 43 13.165C41.5178 13.165 40.3125 14.3458 40.3125 15.798C40.3125 17.2501 41.5178 18.431 43 18.431C43.7434 18.431 44.3438 19.0191 44.3438 19.7475C44.3438 20.4758 43.7434 21.0639 43 21.0639Z" fill="white"/>
<path d="M67.1875 36.8619H48.375C47.6316 36.8619 47.0312 36.2737 47.0312 35.5454C47.0312 34.8171 47.6316 34.2289 48.375 34.2289H67.1875C67.9309 34.2289 68.5312 34.8171 68.5312 35.5454C68.5312 36.2737 67.9309 36.8619 67.1875 36.8619Z" fill="white"/>
<path d="M53.75 28.9629H48.375C47.6316 28.9629 47.0312 28.3747 47.0312 27.6464C47.0312 26.9181 47.6316 26.3299 48.375 26.3299H53.75C54.4934 26.3299 55.0938 26.9181 55.0938 27.6464C55.0938 28.3747 54.4934 28.9629 53.75 28.9629Z" fill="white"/>
<path d="M53.75 21.064H43C42.2566 21.064 41.6562 20.4758 41.6562 19.7475C41.6562 19.0191 42.2566 18.431 43 18.431H53.75C54.4934 18.431 55.0938 19.0191 55.0938 19.7475C55.0938 20.4758 54.4934 21.064 53.75 21.064Z" fill="white"/>
<path d="M70.9301 13.165H43C42.2566 13.165 41.6562 12.5768 41.6562 11.8485C41.6562 11.1202 42.2566 10.532 43 10.532H70.9301C71.6728 10.532 72.2738 11.1202 72.2738 11.8485C72.2738 12.5768 71.6728 13.165 70.9301 13.165Z" fill="white"/>
<path d="M67.1875 44.7609H60.4688C59.7254 44.7609 59.125 44.1727 59.125 43.4444C59.125 42.716 59.7254 42.1279 60.4688 42.1279H67.1875C67.9309 42.1279 68.5312 42.716 68.5312 43.4444C68.5312 44.1727 67.9309 44.7609 67.1875 44.7609Z" fill="white"/>
<path d="M14.7812 27.6477C12.5589 27.6477 10.75 25.8754 10.75 23.6982C10.75 21.521 12.5589 19.7487 14.7812 19.7487C17.0036 19.7487 18.8125 21.521 18.8125 23.6982C18.8125 25.8754 17.0036 27.6477 14.7812 27.6477ZM14.7812 22.3817C14.0398 22.3817 13.4375 22.9718 13.4375 23.6982C13.4375 24.4252 14.0398 25.0147 14.7812 25.0147C15.5227 25.0147 16.125 24.4252 16.125 23.6982C16.125 22.9718 15.5227 22.3817 14.7812 22.3817Z" fill="white"/>
<path d="M65.8438 27.6464C63.6214 27.6464 61.8125 25.8742 61.8125 23.6969C61.8125 21.5197 63.6214 19.7474 65.8438 19.7474C68.0661 19.7474 69.875 21.5197 69.875 23.6969C69.875 25.8742 68.0661 27.6464 65.8438 27.6464ZM65.8438 22.3804C65.1023 22.3804 64.5 22.9705 64.5 23.6969C64.5 24.4233 65.1023 25.0134 65.8438 25.0134C66.5852 25.0134 67.1875 24.4233 67.1875 23.6969C67.1875 22.9705 66.5852 22.3804 65.8438 22.3804Z" fill="white"/>
<path d="M26.875 73.7238C24.6527 73.7238 22.8438 71.9515 22.8438 69.7743C22.8438 67.5971 24.6527 65.8248 26.875 65.8248C29.0973 65.8248 30.9062 67.5971 30.9062 69.7743C30.9062 71.9515 29.0973 73.7238 26.875 73.7238ZM26.875 68.4578C26.1336 68.4578 25.5312 69.0479 25.5312 69.7743C25.5312 70.5007 26.1336 71.0908 26.875 71.0908C27.6164 71.0908 28.2188 70.5007 28.2188 69.7743C28.2188 69.0479 27.6164 68.4578 26.875 68.4578Z" fill="white"/>
<path d="M29.2768 69.9124C28.9822 69.9124 28.6882 69.8192 28.4396 69.6245C27.8589 69.1713 27.7651 68.342 28.2283 67.7744L63.1192 24.9292C63.5824 24.3616 64.4262 24.2683 65.0069 24.7222C65.5876 25.1754 65.6814 26.0046 65.2182 26.5722L30.3273 69.4175C30.0628 69.744 29.6718 69.9124 29.2768 69.9124Z" fill="white"/>
<path d="M17.4688 25.0147C16.7254 25.0147 16.125 24.4265 16.125 23.6982C16.125 22.9705 16.7254 22.3817 17.4688 22.3817L63.1562 22.3804C63.8996 22.3804 64.5 22.9686 64.5 23.6969C64.5 24.4252 63.8996 25.0134 63.1562 25.0134L17.4688 25.0147Z" fill="white"/>
<path d="M26.205 68.5446C25.6072 68.5446 25.06 68.1499 24.9045 67.556L14.1447 26.5684C13.9596 25.8639 14.3933 25.1465 15.1125 24.9646C15.8244 24.7872 16.5638 25.2082 16.7488 25.9128L27.5087 66.9003C27.6937 67.6048 27.26 68.3222 26.5409 68.5041C26.4293 68.533 26.3165 68.5446 26.205 68.5446Z" fill="white"/>
<path d="M69.875 84.2558C62.4653 84.2558 56.4375 78.3502 56.4375 71.0908C56.4375 63.8314 62.4653 57.9258 69.875 57.9258C77.2847 57.9258 83.3125 63.8314 83.3125 71.0908C83.3125 78.3502 77.2847 84.2558 69.875 84.2558ZM69.875 60.5588C63.9475 60.5588 59.125 65.2836 59.125 71.0908C59.125 76.898 63.9475 81.6228 69.875 81.6228C75.8025 81.6228 80.625 76.898 80.625 71.0908C80.625 65.2836 75.8025 60.5588 69.875 60.5588Z" fill="white"/>
<path d="M69.875 60.5588C63.9475 60.5588 59.125 65.2836 59.125 71.0908C59.125 76.898 63.9475 81.6228 69.875 81.6228C75.8025 81.6228 80.625 76.898 80.625 71.0908C80.625 65.2836 75.8025 60.5588 69.875 60.5588Z" fill="white"/>
<path d="M73.9062 72.4073H65.8438C65.1004 72.4073 64.5 71.8191 64.5 71.0908C64.5 70.3625 65.1004 69.7743 65.8438 69.7743H73.9062C74.6496 69.7743 75.25 70.3625 75.25 71.0908C75.25 71.8191 74.6496 72.4073 73.9062 72.4073Z" fill="white"/>
<path d="M69.875 76.3581C69.1316 76.3581 68.5312 75.7699 68.5312 75.0416V67.1413C68.5312 66.413 69.1316 65.8248 69.875 65.8248C70.6184 65.8248 71.2188 66.413 71.2188 67.1413V75.0416C71.2188 75.7699 70.6184 76.3581 69.875 76.3581Z" fill="white"/>
</g>
<defs>
<clipPath id="clip0">
<rect width="86" height="84.2557" fill="white"/>
</clipPath>
</defs>
</svg>
